# xmcd
#
# Track frame offsets:
#	150
#	22287
#	43375
#	66537
#	89300
#	108792
#	132365
#	147922
#	167990
#	189952
#	211892
#	244767
#	265382
#
# Disc length: 3839
#
# Revision: 2
# Processed by: cddbd v1.5.1PL0 Copyright (c) Steve Scherf et al.
# Submitted via: Easy CD Ripper v2.14
# Normalized: r1:DSETVAR1
#
DISCID=c70efd0d
DTITLE=Various Artist - Salsa Hits
DYEAR=1998
DGENRE=Salsa
TTITLE0=Bembelequa - Celia Cruz
TTITLE1=Que me quiten lo baila´o - Oscar d´León
TTITLE2=El Canario - Quien como tu - José Alberto
TTITLE3=Medellin, Medellin - Orquesta Guayacán
TTITLE4=Cali Calor - Orquesta Matecaña
TTITLE5=Me Va a Extrañar - Jesus Enriquez
TTITLE6=Mambo Sentimental - Tito Puente
TTITLE7=Si Ya No Estas - 3-2 Get Funky
TTITLE8=Imperdonable - Tito Nieves
TTITLE9=Si No Tengo Tu Amor - Ray Sepúlveda
TTITLE10=Medley: Estar Enamorado/Todo Se - Louie Ramirez - Ray de la Paz
TTITLE11=Maldita Duda - Alberto Barros
TTITLE12=Tu Como Estás - Domingo Quiñones
EXTD=
EXTT0=
EXTT1=
EXTT2=
EXTT3=
EXTT4=
EXTT5=
EXTT6=
EXTT7=
EXTT8=
EXTT9=
EXTT10=
EXTT11=
EXTT12=
PLAYORDER=
